<mxfile host="app.diagrams.net" modified="2021-05-25T19:03:46.213Z" agent="5.0 (Windows NT 10.0; WOW64) AppleWebKit/537.36 (KHTML, like Gecko) Chrome/90.0.4430.212 Safari/537.36" etag="_MAQFZZP5MESQ7ANAnIO" version="14.7.0" type="github">
  <diagram id="utqoFmMdFExz3wtsukLY" name="Page-1">
    <mxGraphModel dx="782" dy="469" grid="1" gridSize="10" guides="1" tooltips="1" connect="1" arrows="1" fold="1" page="1" pageScale="1" pageWidth="850" pageHeight="1100" math="0" shadow="0">
      <root>
        <mxCell id="0" />
        <mxCell id="1" parent="0" />
        <mxCell id="7iqmgR-40jVpy7MB2XHG-1" value="Actor" style="shape=umlActor;verticalLabelPosition=bottom;verticalAlign=top;html=1;outlineConnect=0;" vertex="1" parent="1">
          <mxGeometry x="20" y="100" width="40" height="65" as="geometry" />
        </mxCell>
        <mxCell id="7iqmgR-40jVpy7MB2XHG-3" value="Load Balancer/ Reverse Proxy" style="rounded=0;whiteSpace=wrap;html=1;" vertex="1" parent="1">
          <mxGeometry x="120" y="105" width="120" height="60" as="geometry" />
        </mxCell>
        <mxCell id="7iqmgR-40jVpy7MB2XHG-4" value="" style="shape=flexArrow;endArrow=classic;startArrow=classic;html=1;entryX=0;entryY=0.5;entryDx=0;entryDy=0;exitX=0.5;exitY=0.5;exitDx=0;exitDy=0;exitPerimeter=0;" edge="1" parent="1" source="7iqmgR-40jVpy7MB2XHG-1" target="7iqmgR-40jVpy7MB2XHG-3">
          <mxGeometry width="100" height="100" relative="1" as="geometry">
            <mxPoint x="70" y="134.5" as="sourcePoint" />
            <mxPoint x="170" y="134.5" as="targetPoint" />
          </mxGeometry>
        </mxCell>
        <mxCell id="7iqmgR-40jVpy7MB2XHG-7" value="Database" style="shape=cylinder3;whiteSpace=wrap;html=1;boundedLbl=1;backgroundOutline=1;size=15;" vertex="1" parent="1">
          <mxGeometry x="590" y="95" width="60" height="80" as="geometry" />
        </mxCell>
        <mxCell id="7iqmgR-40jVpy7MB2XHG-8" value="Copy of Database" style="shape=cylinder3;whiteSpace=wrap;html=1;boundedLbl=1;backgroundOutline=1;size=15;" vertex="1" parent="1">
          <mxGeometry x="590" y="200" width="60" height="80" as="geometry" />
        </mxCell>
        <mxCell id="7iqmgR-40jVpy7MB2XHG-9" value="System with cache&amp;nbsp;" style="ellipse;whiteSpace=wrap;html=1;" vertex="1" parent="1">
          <mxGeometry x="290" y="45" width="80" height="50" as="geometry" />
        </mxCell>
        <mxCell id="7iqmgR-40jVpy7MB2XHG-10" value="&lt;span style=&quot;color: rgb(0 , 0 , 0) ; font-family: &amp;#34;helvetica&amp;#34; ; font-size: 12px ; font-style: normal ; font-weight: 400 ; letter-spacing: normal ; text-align: center ; text-indent: 0px ; text-transform: none ; word-spacing: 0px ; background-color: rgb(248 , 249 , 250) ; display: inline ; float: none&quot;&gt;System with cache&amp;nbsp;&lt;/span&gt;" style="ellipse;whiteSpace=wrap;html=1;" vertex="1" parent="1">
          <mxGeometry x="290" y="140" width="80" height="50" as="geometry" />
        </mxCell>
        <mxCell id="7iqmgR-40jVpy7MB2XHG-11" value="&lt;span style=&quot;color: rgb(0 , 0 , 0) ; font-family: &amp;#34;helvetica&amp;#34; ; font-size: 12px ; font-style: normal ; font-weight: 400 ; letter-spacing: normal ; text-align: center ; text-indent: 0px ; text-transform: none ; word-spacing: 0px ; background-color: rgb(248 , 249 , 250) ; display: inline ; float: none&quot;&gt;System with cache&amp;nbsp;&lt;/span&gt;" style="ellipse;whiteSpace=wrap;html=1;" vertex="1" parent="1">
          <mxGeometry x="290" y="230" width="80" height="50" as="geometry" />
        </mxCell>
        <mxCell id="7iqmgR-40jVpy7MB2XHG-12" value="" style="endArrow=classic;html=1;exitX=1;exitY=0.5;exitDx=0;exitDy=0;entryX=0;entryY=0.5;entryDx=0;entryDy=0;" edge="1" parent="1" source="7iqmgR-40jVpy7MB2XHG-3" target="7iqmgR-40jVpy7MB2XHG-11">
          <mxGeometry width="50" height="50" relative="1" as="geometry">
            <mxPoint x="380" y="260" as="sourcePoint" />
            <mxPoint x="430" y="210" as="targetPoint" />
          </mxGeometry>
        </mxCell>
        <mxCell id="7iqmgR-40jVpy7MB2XHG-13" value="" style="endArrow=classic;html=1;exitX=1;exitY=0.5;exitDx=0;exitDy=0;entryX=0;entryY=0.5;entryDx=0;entryDy=0;" edge="1" parent="1" source="7iqmgR-40jVpy7MB2XHG-3" target="7iqmgR-40jVpy7MB2XHG-10">
          <mxGeometry width="50" height="50" relative="1" as="geometry">
            <mxPoint x="250" y="145" as="sourcePoint" />
            <mxPoint x="300" y="265" as="targetPoint" />
          </mxGeometry>
        </mxCell>
        <mxCell id="7iqmgR-40jVpy7MB2XHG-14" value="" style="endArrow=classic;html=1;entryX=0;entryY=0.5;entryDx=0;entryDy=0;" edge="1" parent="1" target="7iqmgR-40jVpy7MB2XHG-9">
          <mxGeometry width="50" height="50" relative="1" as="geometry">
            <mxPoint x="240" y="130" as="sourcePoint" />
            <mxPoint x="310" y="275" as="targetPoint" />
          </mxGeometry>
        </mxCell>
        <mxCell id="7iqmgR-40jVpy7MB2XHG-15" value="" style="endArrow=none;dashed=1;html=1;dashPattern=1 3;strokeWidth=2;" edge="1" parent="1">
          <mxGeometry width="50" height="50" relative="1" as="geometry">
            <mxPoint x="320" y="380" as="sourcePoint" />
            <mxPoint x="320" y="300" as="targetPoint" />
          </mxGeometry>
        </mxCell>
      </root>
    </mxGraphModel>
  </diagram>
</mxfile>
